<svg xmlns="http://www.w3.org/2000/svg" width="32" height="33" fill="none"><path fill="#ED515D" d="M8 6.5a1 1 0 0 1 1-1h10.886a1 1 0 0 1 .726.312l5.114 5.399a1 1 0 0 1 .274.688V25.9a1.6 1.6 0 0 1-1.6 1.6H9.6A1.6 1.6 0 0 1 8 25.9z"/><path fill="#D94E59" d="M20.06 5.5a1 1 0 0 1 .737.324l4.94 5.39a1 1 0 0 1 .263.675v.611h-5.5a1 1 0 0 1-1-1v-6z"/><path stroke="#fff" stroke-width="2" d="M16 13c0 2.882 2.571 7 6 7m-11 3c2.5-1.25 5-5 5-10"/><path stroke="#fff" stroke-width="2" d="M11 23c2.64-1.262 8.36-3.366 11-2.945"/></svg>